HIERARCHY
ROOT Hips
{
  OFFSET 5.72205e-005 65.662 3.42586
  CHANNELS 6 Xposition Yposition Zposition Zrotation Xrotation Yrotation
  JOINT Chest
  {
    OFFSET 0 8.7983 -4.7612
    CHANNELS 6 Xposition Yposition Zposition Zrotation Xrotation Yrotation
    JOINT Chest2
    {
      OFFSET 0 8.0291 0.4195
      CHANNELS 6 Xposition Yposition Zposition Zrotation Xrotation Yrotation
      JOINT Chest3
      {
        OFFSET 0 9.9351 -2.2114
        CHANNELS 6 Xposition Yposition Zposition Zrotation Xrotation Yrotation
        JOINT Neck
        {
          OFFSET 0 22.3885 -0.4656
          CHANNELS 6 Xposition Yposition Zposition Zrotation Xrotation Yrotation
          JOINT Head
          {
            OFFSET -0.0001 12.643 3.4389
            CHANNELS 6 Xposition Yposition Zposition Zrotation Xrotation Yrotation
            End Site
            {
              OFFSET 0.0001 17.6655 0.5274
            }
          }
        }
        JOINT LeftCollar
        {
          OFFSET 2.2603 21.606 7.4023
          CHANNELS 6 Xposition Yposition Zposition Zrotation Xrotation Yrotation
          JOINT LeftShoulder
          {
            OFFSET 13.5163 -1.1332 -5.0146
            CHANNELS 6 Xposition Yposition Zposition Zrotation Xrotation Yrotation
            JOINT LeftElbow
            {
              OFFSET -0.0995 -28.05 -0.2431
              CHANNELS 6 Xposition Yposition Zposition Zrotation Xrotation Yrotation
              JOINT LeftWrist
              {
                OFFSET 0.0679 -23.3996 -0.1402
                CHANNELS 6 Xposition Yposition Zposition Zrotation Xrotation Yrotation
                JOINT LeftFinger1
                {
                  OFFSET 0.7932 -9.069 2.5189
                  CHANNELS 6 Xposition Yposition Zposition Zrotation Xrotation Yrotation
                  JOINT LeftFinger11
                  {
                    OFFSET -0.8272 -3.3923 0.5977
                    CHANNELS 6 Xposition Yposition Zposition Zrotation Xrotation Yrotation
                    JOINT LeftFinger12
                    {
                      OFFSET -0.5649 -2.3158 0.4082
                      CHANNELS 6 Xposition Yposition Zposition Zrotation Xrotation Yrotation
                      End Site
                      {
                        OFFSET -0.4919 -1.6479 0.2673
                      }
                    }
                  }
                }
                JOINT LeftFinger2
                {
                  OFFSET 0.9159 -9.2044 0.2193
                  CHANNELS 6 Xposition Yposition Zposition Zrotation Xrotation Yrotation
                  JOINT LeftFinger21
                  {
                    OFFSET 0.0117 -4.1944 -0.0248
                    CHANNELS 6 Xposition Yposition Zposition Zrotation Xrotation Yrotation
                    JOINT LeftFinger22
                    {
                      OFFSET 0.0071 -2.3249 -0.0142
                      CHANNELS 6 Xposition Yposition Zposition Zrotation Xrotation Yrotation
                      End Site
                      {
                        OFFSET -0.1475 -2.0882 0.0028
                      }
                    }
                  }
                }
                JOINT LeftFinger3
                {
                  OFFSET 0.6113 -8.7231 -2.0637
                  CHANNELS 6 Xposition Yposition Zposition Zrotation Xrotation Yrotation
                  JOINT LeftFinger31
                  {
                    OFFSET -0.1927 -3.8059 -0.2383
                    CHANNELS 6 Xposition Yposition Zposition Zrotation Xrotation Yrotation
                    JOINT LeftFinger32
                    {
                      OFFSET -0.1091 -2.1688 -0.1362
                      CHANNELS 6 Xposition Yposition Zposition Zrotation Xrotation Yrotation
                      End Site
                      {
                        OFFSET -0.2358 -1.9176 -0.0906
                      }
                    }
                  }
                }
                JOINT LeftFinger4
                {
                  OFFSET -0.6151 -8.0947 -3.5641
                  CHANNELS 6 Xposition Yposition Zposition Zrotation Xrotation Yrotation
                  JOINT LeftFinger41
                  {
                    OFFSET -0.4882 -2.341 -0.6462
                    CHANNELS 6 Xposition Yposition Zposition Zrotation Xrotation Yrotation
                    JOINT LeftFinger42
                    {
                      OFFSET -0.3575 -1.7167 -0.4742
                      CHANNELS 6 Xposition Yposition Zposition Zrotation Xrotation Yrotation
                      End Site
                      {
                        OFFSET -0.4187 -1.5237 -0.3496
                      }
                    }
                  }
                }
                JOINT LeftFinger0
                {
                  OFFSET -1.42 -1.8761 1.4223
                  CHANNELS 6 Xposition Yposition Zposition Zrotation Xrotation Yrotation
                  JOINT LeftFinger01
                  {
                    OFFSET -1.1471 -3.4929 2.6334
                    CHANNELS 6 Xposition Yposition Zposition Zrotation Xrotation Yrotation
                    JOINT LeftFinger02
                    {
                      OFFSET -0.823 -2.3 1.6571
                      CHANNELS 6 Xposition Yposition Zposition Zrotation Xrotation Yrotation
                      End Site
                      {
                        OFFSET -0.5822 -1.6914 1.1582
                      }
                    }
                  }
                }
              }
            }
          }
        }
        JOINT RightCollar
        {
          OFFSET -2.2603 21.606 7.4023
          CHANNELS 6 Xposition Yposition Zposition Zrotation Xrotation Yrotation
          JOINT RightShoulder
          {
            OFFSET -13.5187 -1.1334 -5.0155
            CHANNELS 6 Xposition Yposition Zposition Zrotation Xrotation Yrotation
            JOINT RightElbow
            {
              OFFSET 0.0994 -28.0499 -0.2431
              CHANNELS 6 Xposition Yposition Zposition Zrotation Xrotation Yrotation
              JOINT RightWrist
              {
                OFFSET -0.0679 -23.3996 -0.1402
                CHANNELS 6 Xposition Yposition Zposition Zrotation Xrotation Yrotation
                JOINT RightFinger1
                {
                  OFFSET -0.7932 -9.0691 2.5189
                  CHANNELS 6 Xposition Yposition Zposition Zrotation Xrotation Yrotation
                  JOINT RightFinger11
                  {
                    OFFSET 0.8272 -3.3923 0.5977
                    CHANNELS 6 Xposition Yposition Zposition Zrotation Xrotation Yrotation
                    JOINT RightFinger12
                    {
                      OFFSET 0.565 -2.3158 0.4082
                      CHANNELS 6 Xposition Yposition Zposition Zrotation Xrotation Yrotation
                      End Site
                      {
                        OFFSET 0.4919 -1.6479 0.2673
                      }
                    }
                  }
                }
                JOINT RightFinger2
                {
                  OFFSET -0.916 -9.2044 0.2193
                  CHANNELS 6 Xposition Yposition Zposition Zrotation Xrotation Yrotation
                  JOINT RightFinger21
                  {
                    OFFSET -0.0117 -4.1944 -0.0248
                    CHANNELS 6 Xposition Yposition Zposition Zrotation Xrotation Yrotation
                    JOINT RightFinger22
                    {
                      OFFSET -0.0071 -2.3249 -0.0142
                      CHANNELS 6 Xposition Yposition Zposition Zrotation Xrotation Yrotation
                      End Site
                      {
                        OFFSET 0.1475 -2.0882 0.0028
                      }
                    }
                  }
                }
                JOINT RightFinger3
                {
                  OFFSET -0.6113 -8.7231 -2.0637
                  CHANNELS 6 Xposition Yposition Zposition Zrotation Xrotation Yrotation
                  JOINT RightFinger31
                  {
                    OFFSET 0.1927 -3.8059 -0.2383
                    CHANNELS 6 Xposition Yposition Zposition Zrotation Xrotation Yrotation
                    JOINT RightFinger32
                    {
                      OFFSET 0.1091 -2.1688 -0.1362
                      CHANNELS 6 Xposition Yposition Zposition Zrotation Xrotation Yrotation
                      End Site
                      {
                        OFFSET 0.2358 -1.9176 -0.0906
                      }
                    }
                  }
                }
                JOINT RightFinger4
                {
                  OFFSET 0.6151 -8.0947 -3.564
                  CHANNELS 6 Xposition Yposition Zposition Zrotation Xrotation Yrotation
                  JOINT RightFinger41
                  {
                    OFFSET 0.4882 -2.341 -0.6462
                    CHANNELS 6 Xposition Yposition Zposition Zrotation Xrotation Yrotation
                    JOINT RightFinger42
                    {
                      OFFSET 0.3574 -1.7166 -0.4742
                      CHANNELS 6 Xposition Yposition Zposition Zrotation Xrotation Yrotation
                      End Site
                      {
                        OFFSET 0.4187 -1.5237 -0.3496
                      }
                    }
                  }
                }
                JOINT RightFinger0
                {
                  OFFSET 1.4199 -1.8761 1.4221
                  CHANNELS 6 Xposition Yposition Zposition Zrotation Xrotation Yrotation
                  JOINT RightFinger01
                  {
                    OFFSET 1.1472 -3.4929 2.6336
                    CHANNELS 6 Xposition Yposition Zposition Zrotation Xrotation Yrotation
                    JOINT RightFinger02
                    {
                      OFFSET 0.8229 -2.3 1.6571
                      CHANNELS 6 Xposition Yposition Zposition Zrotation Xrotation Yrotation
                      End Site
                      {
                        OFFSET 0.5822 -1.6914 1.1582
                      }
                    }
                  }
                }
              }
            }
          }
        }
      }
    }
  }
  JOINT RightHip
  {
    OFFSET -9.412 3.9771 -0.7758
    CHANNELS 6 Xposition Yposition Zposition Zrotation Xrotation Yrotation
    JOINT RightKnee
    {
      OFFSET -0.7531 -40.938 0
      CHANNELS 6 Xposition Yposition Zposition Zrotation Xrotation Yrotation
      JOINT RightAnkle
      {
        OFFSET 0 -40.1986 0
        CHANNELS 6 Xposition Yposition Zposition Zrotation Xrotation Yrotation
        JOINT RightToe
        {
          OFFSET 0 -4.4182 9.239
          CHANNELS 6 Xposition Yposition Zposition Zrotation Xrotation Yrotation
          End Site
          {
            OFFSET 0 0 6.1981
          }
        }
      }
    }
  }
  JOINT LeftHip
  {
    OFFSET 9.4119 3.9773 -0.7758
    CHANNELS 6 Xposition Yposition Zposition Zrotation Xrotation Yrotation
    JOINT LeftKnee
    {
      OFFSET 0.7532 -40.9383 0
      CHANNELS 6 Xposition Yposition Zposition Zrotation Xrotation Yrotation
      JOINT LeftAnkle
      {
        OFFSET 0 -40.1986 0
        CHANNELS 6 Xposition Yposition Zposition Zrotation Xrotation Yrotation
        JOINT LeftToe
        {
          OFFSET 0 -4.4182 9.239
          CHANNELS 6 Xposition Yposition Zposition Zrotation Xrotation Yrotation
          End Site
          {
            OFFSET 0 0 6.1981
          }
        }
      }
    }
  }
}
MOTION
Frames:	4
Frame Time:	0.0333333
0.00988147 3.48875 8.51537 180 -81.997 180 0 8.7983 -4.7612 -0.0357316 0.0803075 -0.195668 -1.30104e-018 8.0291 0.4195 -0.0711908 0.160711 -0.391296 -6.9389e-018 9.9351 -2.2114 -0.0711909 0.160718 -0.391296 1.38778e-017 22.3885 -0.4656 -0.000210977 33.2727 0.000533536 -0.0001 12.643 3.4389 4.39594e-007 -7.33314 6.35493e-008 2.2603 21.606 7.4023 16.1405 4.53698 -5.48422 13.5163 -1.1332 -5.0146 105.542 -17.9003 91.7054 -0.0995 -28.05 -0.2431 -173.149 -47.3416 164.801 0.0679 -23.3996 -0.1402 -12.1498 -21.8443 9.18845 0.7932 -9.069 2.5189 -7.86365e-008 -2.00122e-007 -5.03426e-008 -0.8272 -3.3923 0.5977 2.79541e-016 -3.97569e-016 9.93923e-017 -0.5649 -2.3158 0.4082 7.86365e-008 2.00122e-007 5.03426e-008 0.9159 -9.2044 0.2193 -7.86365e-008 -2.00122e-007 -5.03426e-008 0.0117 -4.1944 -0.0248 -0.0128188 0.00232584 8.57811e-005 0.0071 -2.3249 -0.0142 4.3455e-008 -5.09878e-010 7.45701e-007 0.6113 -8.7231 -2.0637 -7.86365e-008 -2.00122e-007 -5.03426e-008 -0.1927 -3.8059 -0.2383 -0.0160526 0.00299657 0.000856458 -0.1091 -2.1688 -0.1362 4.34469e-008 4.24468e-007 7.45701e-007 -0.6151 -8.0947 -3.5641 -7.86365e-008 -2.00122e-007 -5.03426e-008 -0.4882 -2.341 -0.6462 -0.0125813 0.00312003 0.00282432 -0.3575 -1.7167 -0.4742 3.04389e-016 7.95139e-016 9.93923e-017 -1.42 -1.8761 1.4223 -7.86365e-008 -2.00122e-007 -5.03426e-008 -1.1471 -3.4929 2.6334 2.79541e-016 -3.97569e-016 9.93923e-017 -0.823 -2.3 1.6571 7.86365e-008 2.00122e-007 5.03426e-008 -2.2603 21.606 7.4023 -16.9857 4.80733 0.0862783 -13.5187 -1.1334 -5.0155 -103.938 -22.1531 -92.9232 0.0994 -28.0499 -0.2431 176.327 -47.0596 -162.948 -0.0679 -23.3996 -0.1402 12.3693 -21.6904 -9.2179 -0.7932 -9.0691 2.5189 -3.14624e-008 2.13108e-007 -8.53107e-007 0.8272 -3.3923 0.5977 -6.88241e-008 -1.04598e-009 -1.86617e-006 0.565 -2.3158 0.4082 -1.9664e-008 -2.25446e-011 -5.33192e-007 -0.916 -9.2044 0.2193 -3.14624e-008 2.13108e-007 -8.53107e-007 -0.0117 -4.1944 -0.0248 0.0129498 0.00231741 -8.74057e-005 -0.0071 -2.3249 -0.0142 1.01991e-005 -2.66944e-007 -1.22426e-006 -0.6113 -8.7231 -2.0637 -3.14624e-008 2.13108e-007 -8.53107e-007 0.1927 -3.8059 -0.2383 0.0163394 0.0030362 -0.000874702 0.1091 -2.1688 -0.1362 -3.66509e-016 1.19271e-015 -0 0.6151 -8.0947 -3.564 -3.14624e-008 2.13108e-007 -8.53107e-007 0.4882 -2.341 -0.6462 0.0146004 0.00368325 -0.00326536 0.3574 -1.7166 -0.4742 1.2424e-016 7.95139e-016 2.98177e-016 1.4199 -1.8761 1.4221 -3.14624e-008 2.13108e-007 -8.53107e-007 1.1472 -3.4929 2.6336 -6.88241e-008 -1.04598e-009 -1.86617e-006 0.8229 -2.3 1.6571 -1.9664e-008 -2.25446e-011 -5.33192e-007 -9.412 3.9771 -0.7758 -39.7966 7.44051 -36.6037 -0.7531 -40.938 2.66454e-015 -59.323 49.3806 45.5122 0 -40.1986 7.10543e-015 9.52965 -3.83293 -1.63512 0 -4.4182 9.239 3.18055e-015 1.73764e-006 -0 9.4119 3.9773 -0.7758 39.7754 7.43437 36.5738 0.7532 -40.9383 -4.44089e-015 58.3237 48.8112 -44.2173 -3.55271e-015 -40.1986 7.10543e-015 -9.53706 -3.78334 1.61147 7.10543e-015 -4.4182 9.239 -1.76556e-031 1.59028e-015 6.36111e-015 
0.00937406 3.48559 8.5126 -180 -81.997 -180 0 8.7983 -4.7612 -0.035876 0.11956 -0.195582 0 8.0291 0.4195 -0.0713438 0.239231 -0.391091 1.04083e-017 9.9351 -2.2114 -0.0713438 0.239235 -0.391091 0 22.3885 -0.4656 0.000420331 33.619 -0.00105088 -0.0001 12.643 3.4389 -3.67962e-007 -6.49557 1.17002e-007 2.2603 21.606 7.4023 16.1404 4.53733 -5.48569 13.5163 -1.1332 -5.0146 105.542 -17.9004 91.7054 -0.0995 -28.05 -0.2431 -173.149 -47.3416 164.801 0.0679 -23.3996 -0.1402 -12.1498 -21.8443 9.18845 0.7932 -9.069 2.5189 -1.98785e-016 3.97569e-016 3.97569e-016 -0.8272 -3.3923 0.5977 -3.85145e-016 0 1.98785e-016 -0.5649 -2.3158 0.4082 -1.73937e-016 0 1.98785e-016 0.9159 -9.2044 0.2193 -1.98785e-016 3.97569e-016 3.97569e-016 0.0117 -4.1944 -0.0248 -0.0128116 0.00232487 8.66228e-005 0.0071 -2.3249 -0.0142 5.8393e-016 -3.97569e-016 3.97569e-016 0.6113 -8.7231 -2.0637 -1.98785e-016 3.97569e-016 3.97569e-016 -0.1927 -3.8059 -0.2383 -0.0160192 0.00299131 0.000857316 -0.1091 -2.1688 -0.1362 -5.34234e-016 7.95139e-016 1.98785e-016 -0.6151 -8.0947 -3.5641 -1.98785e-016 3.97569e-016 3.97569e-016 -0.4882 -2.341 -0.6462 -0.0126093 0.00312861 0.00283225 -0.3575 -1.7167 -0.4742 1.38636e-007 -3.07101e-008 -2.4266e-007 -1.42 -1.8761 1.4223 -1.98785e-016 3.97569e-016 3.97569e-016 -1.1471 -3.4929 2.6334 -3.85145e-016 0 1.98785e-016 -0.823 -2.3 1.6571 -1.73937e-016 0 1.98785e-016 -2.2603 21.606 7.4023 -16.9858 4.80842 0.0852263 -13.5187 -1.1334 -5.0155 -103.938 -22.1531 -92.9232 0.0994 -28.0499 -0.2431 176.327 -47.0596 -162.948 -0.0679 -23.3996 -0.1402 12.3692 -21.6904 -9.21789 -0.7932 -9.0691 2.5189 -3.1568e-008 2.12704e-007 -8.53057e-007 0.8272 -3.3923 0.5977 3.1568e-008 -2.12704e-007 8.53057e-007 0.565 -2.3158 0.4082 -3.1568e-008 2.12704e-007 -8.53057e-007 -0.916 -9.2044 0.2193 -3.1568e-008 2.12704e-007 -8.53057e-007 -0.0117 -4.1944 -0.0248 0.0129566 0.00231727 -8.54922e-005 -0.0071 -2.3249 -0.0142 -3.5479e-008 -4.27042e-007 -9.5969e-007 -0.6113 -8.7231 -2.0637 -3.1568e-008 2.12704e-007 -8.53057e-007 0.1927 -3.8059 -0.2383 0.016313 0.00302952 -0.000872436 0.1091 -2.1688 -0.1362 -3.15271e-008 2.13009e-007 -8.53058e-007 0.6151 -8.0947 -3.564 -3.1568e-008 2.12704e-007 -8.53057e-007 0.4882 -2.341 -0.6462 0.0145585 0.00367069 -0.00325736 0.3574 -1.7166 -0.4742 -2.36379e-008 -4.52302e-010 -6.39793e-007 1.4199 -1.8761 1.4221 -3.1568e-008 2.12704e-007 -8.53057e-007 1.1472 -3.4929 2.6336 3.1568e-008 -2.12704e-007 8.53057e-007 0.8229 -2.3 1.6571 -3.1568e-008 2.12704e-007 -8.53057e-007 -9.412 3.9771 -0.7758 -39.797 7.43715 -36.616 -0.7531 -40.938 -5.32907e-015 -59.6481 49.5551 45.9267 3.55271e-015 -40.1986 0 9.52462 -3.85366 -1.64534 -7.10543e-015 -4.4182 9.239 1.674e-007 -2.88796e-006 1.47387e-006 9.4119 3.9773 -0.7758 39.7766 7.43099 36.5875 0.7532 -40.9383 3.55271e-015 58.6903 49.0199 -44.6893 3.55272e-015 -40.1986 0 -9.53201 -3.80674 1.62302 7.10543e-015 -4.4182 9.239 6.36111e-015 0 -3.18055e-015 
0.00891644 3.48274 8.5101 -180 -81.997 -180 -1.73472e-018 8.7983 -4.7612 -0.0360678 0.155119 -0.195852 -3.25261e-019 8.0291 0.4195 -0.0716054 0.310385 -0.391608 -3.46945e-018 9.9351 -2.2114 -0.0716053 0.310376 -0.391608 -4.16334e-017 22.3885 -0.4656 0.000145624 33.9298 -0.000360246 -0.0001 12.643 3.4389 9.11185e-008 -5.74112 -4.48718e-008 2.2603 21.606 7.4023 16.1405 4.53719 -5.48505 13.5163 -1.1332 -5.0146 105.542 -17.9003 91.7054 -0.0995 -28.05 -0.2431 -173.149 -47.3416 164.801 0.0679 -23.3996 -0.1402 -12.1498 -21.8443 9.18845 0.7932 -9.069 2.5189 5.59082e-016 0 -0 -0.8272 -3.3923 0.5977 5.71506e-016 0 -0 -0.5649 -2.3158 0.4082 3.72721e-016 0 1.98785e-016 0.9159 -9.2044 0.2193 5.59082e-016 0 -0 0.0117 -4.1944 -0.0248 -0.0128119 0.00232393 8.48606e-005 0.0071 -2.3249 -0.0142 2.60905e-016 -3.97569e-016 -0 0.6113 -8.7231 -2.0637 5.59082e-016 0 -0 -0.1927 -3.8059 -0.2383 -0.0160446 0.00299536 0.000858909 -0.1091 -2.1688 -0.1362 4.96962e-017 0 -0 -0.6151 -8.0947 -3.5641 5.59082e-016 0 -0 -0.4882 -2.341 -0.6462 -0.0125665 0.00311457 0.00282126 -0.3575 -1.7167 -0.4742 4.34841e-016 7.95139e-016 -1.98785e-016 -1.42 -1.8761 1.4223 5.59082e-016 0 -0 -1.1471 -3.4929 2.6334 5.71506e-016 0 -0 -0.823 -2.3 1.6571 3.72721e-016 0 1.98785e-016 -2.2603 21.606 7.4023 -16.9858 4.80795 0.0856884 -13.5187 -1.1334 -5.0155 -103.938 -22.1531 -92.9232 0.0994 -28.0499 -0.2431 176.327 -47.0596 -162.948 -0.0679 -23.3996 -0.1402 12.3692 -21.6904 -9.2179 -0.7932 -9.0691 2.5189 1.86361e-017 7.95139e-016 -1.98785e-016 0.8272 -3.3923 0.5977 -3.72721e-016 0 -0 0.565 -2.3158 0.4082 -3.78933e-016 3.97569e-016 -1.98785e-016 -0.916 -9.2044 0.2193 1.86361e-017 7.95139e-016 -1.98785e-016 -0.0117 -4.1944 -0.0248 0.0129602 0.00231736 -8.58492e-005 -0.0071 -2.3249 -0.0142 4.53478e-016 0 1.98785e-016 -0.6113 -8.7231 -2.0637 1.86361e-017 7.95139e-016 -1.98785e-016 0.1927 -3.8059 -0.2383 0.0163279 0.0030334 -0.000872904 0.1091 -2.1688 -0.1362 -1.30452e-016 7.95139e-016 -1.98785e-016 0.6151 -8.0947 -3.564 1.86361e-017 7.95139e-016 -1.98785e-016 0.4882 -2.341 -0.6462 0.014586 0.0036774 -0.00326151 0.3574 -1.7166 -0.4742 -1.25421e-014 3.97569e-016 7.95139e-016 1.4199 -1.8761 1.4221 1.86361e-017 7.95139e-016 -1.98785e-016 1.1472 -3.4929 2.6336 -3.72721e-016 0 -0 0.8229 -2.3 1.6571 -3.78933e-016 3.97569e-016 -1.98785e-016 -9.412 3.9771 -0.7758 -39.7973 7.43417 -36.6271 -0.7531 -40.938 -1.77636e-015 -59.9431 49.711 46.3022 0 -40.1986 0 9.52005 -3.87226 -1.65455 7.10543e-015 -4.4182 9.239 2.68373e-007 -6.42372e-006 -1.03988e-005 9.4119 3.9773 -0.7758 39.7777 7.42801 36.5998 0.7532 -40.9383 2.66454e-015 59.0235 49.206 -45.1172 3.55271e-015 -40.1986 7.10543e-015 -9.52738 -3.82771 1.63334 0 -4.4182 9.239 3.18055e-015 9.54166e-015 -3.18055e-015 
0.00845957 3.4799 8.50759 -180 -81.997 -180 0 8.7983 -4.7612 -0.0362471 0.190709 -0.196059 1.12486e-018 8.0291 0.4195 -0.0718419 0.381524 -0.392 0 9.9351 -2.2114 -0.0718419 0.381508 -0.392 1.38778e-017 22.3885 -0.4656 1.62213e-005 34.2407 -3.96531e-005 -0.0001 12.643 3.4389 -1.34462e-007 -4.9861 1.13014e-007 2.2603 21.606 7.4023 16.1405 4.53707 -5.48474 13.5163 -1.1332 -5.0146 105.542 -17.9003 91.7054 -0.0995 -28.05 -0.2431 -173.149 -47.3416 164.801 0.0679 -23.3996 -0.1402 -12.1498 -21.8443 9.18844 0.7932 -9.069 2.5189 -3.72721e-016 0 -1.98785e-016 -0.8272 -3.3923 0.5977 4.96962e-017 0 -0 -0.5649 -2.3158 0.4082 -3.23025e-016 0 1.98785e-016 0.9159 -9.2044 0.2193 -3.72721e-016 0 -1.98785e-016 0.0117 -4.1944 -0.0248 -0.0128088 0.00232444 8.50389e-005 0.0071 -2.3249 -0.0142 2.48481e-017 -3.97569e-016 -0 0.6113 -8.7231 -2.0637 -3.72721e-016 0 -1.98785e-016 -0.1927 -3.8059 -0.2383 -0.0160396 0.00299481 0.00085716 -0.1091 -2.1688 -0.1362 -1.24628e-008 3.2461e-010 -2.13013e-007 -0.6151 -8.0947 -3.5641 -3.72721e-016 0 -1.98785e-016 -0.4882 -2.341 -0.6462 -0.0125953 0.00312247 0.00282952 -0.3575 -1.7167 -0.4742 4.84538e-016 3.97569e-016 -1.98785e-016 -1.42 -1.8761 1.4223 -3.72721e-016 0 -1.98785e-016 -1.1471 -3.4929 2.6334 4.96962e-017 0 -0 -0.823 -2.3 1.6571 -3.23025e-016 0 1.98785e-016 -2.2603 21.606 7.4023 -16.9857 4.80771 0.0858888 -13.5187 -1.1334 -5.0155 -103.938 -22.1531 -92.9232 0.0994 -28.0499 -0.2431 176.327 -47.0596 -162.948 -0.0679 -23.3996 -0.1402 12.3693 -21.6904 -9.21791 -0.7932 -9.0691 2.5189 -2.38178e-008 -2.13663e-007 -6.39705e-007 0.8272 -3.3923 0.5977 -1.19089e-008 -2.14038e-007 -3.19852e-007 0.565 -2.3158 0.4082 -3.1757e-008 -2.13663e-007 -8.5294e-007 -0.916 -9.2044 0.2193 -2.38178e-008 -2.13663e-007 -6.39705e-007 -0.0117 -4.1944 -0.0248 0.0129498 0.00231786 -8.80256e-005 -0.0071 -2.3249 -0.0142 -7.93178e-009 4.26497e-007 -2.13235e-007 -0.6113 -8.7231 -2.0637 -2.38178e-008 -2.13663e-007 -6.39705e-007 0.1927 -3.8059 -0.2383 0.0163123 0.00303004 -0.000872042 0.1091 -2.1688 -0.1362 1.12541e-007 9.4216e-007 -6.19488e-007 0.6151 -8.0947 -3.564 -2.38178e-008 -2.13663e-007 -6.39705e-007 0.4882 -2.341 -0.6462 0.0145756 0.00367838 -0.00326212 0.3574 -1.7166 -0.4742 1.00554e-007 -1.24851e-007 -9.39481e-007 1.4199 -1.8761 1.4221 -2.38178e-008 -2.13663e-007 -6.39705e-007 1.1472 -3.4929 2.6336 -1.19089e-008 -2.14038e-007 -3.19852e-007 0.8229 -2.3 1.6571 -3.1757e-008 -2.13663e-007 -8.5294e-007 -9.412 3.9771 -0.7758 -39.7976 7.43129 -36.6383 -0.7531 -40.938 1.77636e-015 -60.2406 49.8657 46.6799 0 -40.1986 0 9.51537 -3.89085 -1.66373 0 -4.4182 9.239 1.16901e-007 -1.37479e-006 -4.34451e-007 9.4119 3.9773 -0.7758 39.7788 7.4251 36.6122 0.7532 -40.9383 1.77636e-015 59.3602 49.3906 -45.5483 -3.55271e-015 -40.1986 -7.10543e-015 -9.52264 -3.84866 1.64364 7.10543e-015 -4.4182 9.239 3.18055e-015 -3.19816e-006 -3.18055e-015 
